<?xml version="1.0" encoding="UTF-8"?>
<svg width="200" height="200" viewBox="0 0 200 200" xmlns="http://www.w3.org/2000/svg">
  <!-- 外圈 -->
  <circle cx="100" cy="100" r="90" fill="none" stroke="#ff6b9c" stroke-width="2"/>
  
  <!-- 装饰性星星 -->
  <path d="M100 20 L105 35 L120 35 L110 45 L115 60 L100 50 L85 60 L90 45 L80 35 L95 35 Z" fill="#ff9eb5"/>
  <path d="M20 100 L35 105 L35 120 L45 110 L60 115 L50 100 L60 85 L45 90 L35 80 L35 95 Z" fill="#ff9eb5"/>
  <path d="M100 180 L105 165 L120 165 L110 155 L115 140 L100 150 L85 140 L90 155 L80 165 L95 165 Z" fill="#ff9eb5"/>
  <path d="M180 100 L165 105 L165 120 L155 110 L140 115 L150 100 L140 85 L155 90 L165 80 L165 95 Z" fill="#ff9eb5"/>
  
  <!-- 内部装饰 -->
  <circle cx="100" cy="100" r="40" fill="none" stroke="#ffd6e7" stroke-width="2"/>
  <circle cx="100" cy="100" r="20" fill="none" stroke="#ffd6e7" stroke-width="2"/>
</svg> 